<?xml version="1.0" ?><svg data-name="Capa 1" id="Capa_1" viewBox="0 0 20 19.84" xmlns="http://www.w3.org/2000/svg"><path d="M15.68,4.31a.72.72,0,0,0-.59-.18A13,13,0,0,0,11,5.27,9,9,0,0,0,9,6.78a.52.52,0,0,1-.35.16,6.37,6.37,0,0,0-2.37.7A6.13,6.13,0,0,0,4.79,8.7a.75.75,0,0,0-.16.76.73.73,0,0,0,.59.49l1,.14a.74.74,0,0,0,.21.56l2.93,2.93a.71.71,0,0,0,.56.2l.14,1a.74.74,0,0,0,.5.6l.24,0a.7.7,0,0,0,.52-.22,6.25,6.25,0,0,0,1.75-3.81.56.56,0,0,1,.17-.36,10.72,10.72,0,0,0,1.65-2.25,8.75,8.75,0,0,0,1-3.89A.75.75,0,0,0,15.68,4.31Zm-1.57,4a9.27,9.27,0,0,1-1.5,2.06,1.47,1.47,0,0,0-.43.92,5.55,5.55,0,0,1-.51,1.86,5.92,5.92,0,0,1-.77,1.17l-.16-1.19a.54.54,0,0,0-.34-.42l-.33-.08-.2.18L7.18,10.14l.19-.27-.24-.55L5.67,9.11a5.24,5.24,0,0,1,1-.68,5.45,5.45,0,0,1,2-.59,1.47,1.47,0,0,0,.92-.43A8.72,8.72,0,0,1,11.43,6,12,12,0,0,1,15,5,7.7,7.7,0,0,1,14.11,8.32Z"/><path d="M4.79,13.35a16.28,16.28,0,0,0-.7,2,.29.29,0,0,0,.36.36,13.1,13.1,0,0,0,2.33-.83,1.43,1.43,0,0,0,.46-2.31C6.37,11.71,5.23,12.41,4.79,13.35Z"/></svg>